<?xml version="1.0" encoding="UTF-8" standalone="no"?>
<!-- Created with Inkscape (http://www.inkscape.org/) -->

<svg
   xmlns:dc="http://purl.org/dc/elements/1.1/"
   xmlns:cc="http://creativecommons.org/ns#"
   xmlns:rdf="http://www.w3.org/1999/02/22-rdf-syntax-ns#"
   xmlns:svg="http://www.w3.org/2000/svg"
   xmlns="http://www.w3.org/2000/svg"
   xmlns:sodipodi="http://sodipodi.sourceforge.net/DTD/sodipodi-0.dtd"
   xmlns:inkscape="http://www.inkscape.org/namespaces/inkscape"
   id="svg2"
   version="1.1"
   inkscape:version="0.92.5 (2060ec1f9f, 2020-04-08)"
   width="1024"
   height="1024"
   sodipodi:docname="WCartes2.svg"
   viewBox="0 0 1024 1024">
  <metadata
     id="metadata8">
    <rdf:RDF>
      <cc:Work
         rdf:about="">
        <dc:format>image/svg+xml</dc:format>
        <dc:type
           rdf:resource="http://purl.org/dc/dcmitype/StillImage" />
        <dc:title></dc:title>
      </cc:Work>
    </rdf:RDF>
  </metadata>
  <defs
     id="defs6">
    <clipPath
       clipPathUnits="userSpaceOnUse"
       id="clipPath3341">
      <circle
         style="opacity:1;fill:none;fill-opacity:1;stroke:#000000;stroke-width:11.24822521;stroke-miterlimit:4;stroke-dasharray:none;stroke-dashoffset:0;stroke-opacity:1"
         id="circle3343"
         cx="515.44489"
         cy="510.69141"
         r="435.84955" />
    </clipPath>
  </defs>
  <sodipodi:namedview
     pagecolor="#ffffff"
     bordercolor="#666666"
     borderopacity="1"
     objecttolerance="10"
     gridtolerance="10"
     guidetolerance="10"
     inkscape:pageopacity="0"
     inkscape:pageshadow="2"
     inkscape:window-width="1920"
     inkscape:window-height="1015"
     id="namedview4"
     showgrid="false"
     inkscape:zoom="0.7071068"
     inkscape:cx="270.23377"
     inkscape:cy="430.31138"
     inkscape:window-x="0"
     inkscape:window-y="0"
     inkscape:window-maximized="1"
     inkscape:current-layer="svg2"
     inkscape:document-units="px" />
  <path
     style="fill:#a60f38;fill-opacity:0.99607843"
     d="m 594.33653,577.14467 c -0.571,-1.30542 -8.8603,-22.62348 -18.4206,-47.37348 -12.9004,-33.39683 -17.1087,-45.33895 -16.3206,-46.31458 2.8933,-3.5821 76.0776,-62.21512 76.771,-61.50658 1.1718,1.19748 35.9387,91.65055 35.9387,93.50186 0,0.86028 -16.5375,14.96882 -36.75,31.35233 -20.2125,16.38351 -37.5218,30.44648 -38.4652,31.25106 -1.5374,1.31122 -1.8228,1.21682 -2.7533,-0.91061 z"
     id="path3007"
     inkscape:connector-curvature="0" />
  <path
     style="fill:#c5c5c5;fill-opacity:1"
     d="m 148.22703,965.03305 c -23.2144,-4.9089 -47.757,-19.8269 -61.901697,-37.6265 -11.7989,-14.8477 -19.6959,-31.2422 -23.1181,-47.9943 -1.8508,-9.0598 -1.8946,-18.9145 -1.6433,-369.61854 l 0.2581,-360.31065 2.2435,-7.88441 c 11.2359,-39.48757 40.384497,-68.636164 79.872097,-79.872134 l 7.8844,-2.24346 360.3106,-0.25815 c 349.8033,-0.25062 360.5787,-0.2031 369.5,1.62959 23.5648,4.84085 47.8406,19.28322 62.1207,36.95746 12.1331,15.016884 20.1336,31.512804 23.6973,48.860454 1.8326,8.92137 1.8802,19.69677 1.6295,369.5 l -0.2581,360.31064 -2.2435,7.8844 c -11.2359,39.4875 -40.3845,68.6361 -79.8721,79.8721 l -7.8844,2.2435 -361,0.1837 c -345.4909,0.1759 -361.3693,0.1057 -369.595,-1.6337 z"
     id="path3017"
     inkscape:connector-curvature="0"
     clip-path="url(#clipPath3341)"
     transform="matrix(1.0774336,0,0,1.0774336,-40.048964,-35.408388)" />
  <path
     style="fill:#e6e6e6"
     d="m 398.80403,719.53543 c 40.344,-7.42043 88.8111,-16.32323 107.7047,-19.78399 l 34.352,-6.29229 57.1794,15.92092 c 31.4486,8.7565 63.4615,17.65527 71.14,19.77503 14.9573,4.12925 18.9191,4.26202 24.5734,0.82348 1.6363,-0.99515 4.17,-3.37586 5.6304,-5.29047 2.8333,-3.71475 1.9843,-0.55774 46.7205,-173.7178 11.0766,-42.87389 27.7008,-107.14699 36.9426,-142.82913 9.3362,-36.04616 16.8243,-66.92558 16.8503,-69.48736 0.058,-5.71568 -3.885,-12.9159 -8.7042,-15.89428 -4.4602,-2.75657 -226.6049,-64.48835 -232.0643,-64.48835 -5.2177,0 -9.7434,2.09596 -13.9931,6.48042 -3.8894,4.01294 -4.6745,6.63853 -18.153,60.71433 -5.144,20.63739 -9.6853,37.1583 -10.0918,36.71312 -0.6107,-0.66863 -10.3969,-57.1422 -12.6028,-72.72686 -1.4816,-10.4675 -9.8348,-18.37189 -19.342,-18.3027 -4.2423,0.0309 -38.1328,6.08923 -187.1942,33.46328 -24.0052,4.40838 -45.1707,8.7389 -47.0347,9.62339 -6.1046,2.89684 -11.4122,11.01943 -11.4122,17.46498 0,3.58361 63.8343,380.93189 65.3536,386.32993 2.3015,8.17687 10.3086,14.99606 17.6084,14.99606 1.7514,0 36.193,-6.07126 76.537,-13.49171 z"
     id="path3015"
     inkscape:connector-curvature="0" />
  <path
     inkscape:connector-curvature="0"
     id="path2984"
     d="m 338.78063,751.71357 c -2.2227,-1.00966 -5.2484,-3.27024 -6.7237,-5.02351 -3.0438,-3.61735 -5.3794,-10.85237 -3.9611,-12.27059 0.5056,-0.50565 14.1509,-3.34789 30.3228,-6.3161 16.1718,-2.96821 62.7034,-11.51698 103.4034,-18.99726 40.7,-7.48029 75.575,-13.62211 77.5,-13.6485 1.925,-0.0264 10.7,1.98852 19.5,4.47756 71.4894,20.22046 121.1099,33.65806 124.2877,33.65806 5.3586,0 12.1911,-3.77132 15.3995,-8.5 2.2027,-3.24657 8.4808,-26.32025 33.3307,-122.5 30.1973,-116.87648 54.6918,-211.57047 62.6409,-242.16525 l 4.0701,-15.66526 4.1192,1.45333 c 8.1549,2.87724 11.8047,6.38296 13.7269,13.18508 1.4788,5.23342 1.8653,3.36464 -11.1042,53.6921 -5.3859,20.9 -17.7537,69.05 -27.4839,107 -42.8675,167.19385 -56.5723,220.17853 -57.6166,222.7546 -1.5996,3.94559 -7.1644,8.47822 -12.0111,9.78329 -5.0883,1.37016 2.3969,3.21783 -79.4332,-19.6075 -36.3407,-10.13672 -66.96,-18.43039 -68.043,-18.43039 -1.0829,0 -31.4247,5.41714 -67.426,12.03808 -36.0014,6.62095 -83.734,15.39595 -106.0725,19.5 -22.3385,4.10406 -41.4635,7.45204 -42.5,7.43996 -1.0365,-0.0121 -3.7031,-0.84805 -5.9259,-1.8577 z m 177.1744,-390.12034 c -1.6366,-6.82735 -10.7547,-63.21171 -10.2963,-63.67009 1.031,-1.03095 7.8819,1.92316 11.1841,4.82258 3.7982,3.33486 5.802,8.64618 7.4879,19.84751 1.1069,7.35436 1.0423,7.83012 -3.3238,24.5 -3.2145,12.27285 -4.6193,16.30483 -5.0519,14.5 z"
     style="fill:#cfcfcf;fill-opacity:1;stroke:#d7e2e5;stroke-opacity:0.20855324" />
  <rect
     style="fill:#ffffff;fill-opacity:1;fill-rule:evenodd;stroke:none"
     id="rect3027"
     width="272.43445"
     height="428.07959"
     x="181.13454"
     y="356.30261"
     ry="13.520902"
     transform="matrix(0.98187116,-0.18954952,0.16427005,0.9864154,0,0)" />
  <g
     transform="matrix(0.48584872,0.11295152,-0.11295152,0.48584872,500.48541,231.4299)"
     style="display:inline;fill:#a60f38;fill-opacity:0.99607843;stroke:#000000;stroke-opacity:1"
     id="g889">
    <path
       inkscape:connector-curvature="0"
       style="display:inline;opacity:0.98999999;fill:#a60f38;fill-opacity:0.99607843;stroke:#000000;stroke-opacity:1"
       d="m 518.75959,643.97217 c -2.97591,0.62332 -4.46723,3.73208 -6.29979,5.88651 -5.79687,7.85681 -9.74213,16.92164 -12.21304,26.33129 -0.45734,2.21352 -1.79606,4.3167 -1.7841,6.58922 0.29774,2.0713 3.23186,2.59646 4.38589,0.90154 2.86281,-3.63537 4.81781,-7.97873 7.7809,-11.60637 3.57699,-4.98434 8.65236,-8.76303 12.05308,-13.88865 2.11864,-3.11938 2.0233,-7.19361 0.92591,-10.66422 -0.70653,-2.03765 -2.63601,-3.64562 -4.84885,-3.54932 z m -0.7716,6.79 c 0.71235,0.56365 0.30813,1.96287 0.39799,2.78586 -0.48276,1.89563 -2.45323,2.98632 -3.29754,4.75139 -2.6423,3.73859 -4.21977,8.54682 -8.08142,11.20838 -0.78766,0.66548 -1.29829,-0.38554 -0.85281,-1.01525 0.93463,-1.91783 2.96114,-3.25932 3.08637,-5.56359 1.15797,-3.78438 4.85018,-5.9394 6.57391,-9.42546 0.6682,-0.90777 1.14439,-2.22902 2.1735,-2.74133 z"
       id="path2866"
       transform="matrix(1.37413,0,0,1.37413,-334.18448,-330.27147)" />
    <path
       sodipodi:nodetypes="csssssssssssssssssssssssssscccssssssssssssssssssssssssssssssssssssssssssscc"
       id="path3000"
       d="m 348.40768,679.75173 c -0.66222,-1.23737 -0.94438,-3.83515 -0.63479,-5.84425 0.3555,-2.30701 0.0568,-4.28567 -0.82482,-5.46394 -0.76018,-1.01596 -1.13771,-2.48419 -0.83895,-3.26273 0.29875,-0.77855 0.13376,-1.97231 -0.36664,-2.6528 -0.5365,-0.72958 -0.58601,-8.62333 -0.12065,-19.23727 0.84736,-19.32672 -0.32557,-38.14293 -2.79081,-44.77024 -0.77135,-2.07363 -1.40246,-5.73117 -1.40246,-8.12787 0,-2.3967 -0.62196,-5.8751 -1.38213,-7.72977 -0.76017,-1.85466 -1.70748,-6.95476 -2.10513,-11.33354 -0.39765,-4.37878 -1.14792,-9.07903 -1.66726,-10.445 -0.51934,-1.36597 -1.34909,-8.13333 -1.84389,-15.03858 -0.88602,-12.36497 -2.26202,-17.3664 -5.52234,-20.07222 -0.9428,-0.78246 -1.47925,-3.03121 -1.47925,-6.20093 0,-2.7353 -0.63568,-6.1677 -1.41261,-7.62756 -2.15982,-4.05828 -4.66927,-19.13279 -3.53717,-21.24813 1.40617,-2.62746 1.15268,-7.25564 -0.51842,-9.46503 -0.81782,-1.08126 -1.48708,-4.15601 -1.51082,-6.94113 -0.0234,-2.75 -0.678,-7.09351 -1.45455,-9.65225 -0.77656,-2.55873 -1.70625,-8.40873 -2.06598,-13 -0.35973,-4.59126 -1.29449,-10.04436 -2.07725,-12.11799 -0.78276,-2.07363 -1.4232,-7.12702 -1.4232,-11.22976 0,-4.10274 -0.63624,-9.15613 -1.41386,-11.22976 -0.77763,-2.07363 -1.66374,-6.19446 -1.96913,-9.15739 -0.3054,-2.96293 -1.24416,-6.14836 -2.08614,-7.07874 -0.84198,-0.93037 -1.53087,-3.31573 -1.53087,-5.3008 0,-1.98506 -0.64197,-6.44963 -1.42661,-9.92126 -0.832,-3.68122 -1.62004,-14.23116 -1.8907,-25.31205 l -0.4641,-19 5.39071,-10.87772 c 2.96488,-5.98275 5.3907,-11.27486 5.3907,-11.76026 0,-0.48539 1.575,-3.1233 3.5,-5.86202 1.925,-2.73872 3.5,-5.19456 3.5,-5.45744 0,-1.43057 12.76483,-13.41286 16.78703,-15.75792 8.11902,-4.73361 15.34739,-7.78464 18.44306,-7.78464 1.63967,0 5.68366,-0.70027 8.98663,-1.55616 5.43446,-1.40821 6.43961,-1.40821 10.57248,0 2.51189,0.85589 5.59526,1.55616 6.85192,1.55616 2.19694,0 9.40499,2.4967 16.01001,5.54548 1.73312,0.79999 3.81552,1.45452 4.62755,1.45452 0.81204,0 2.03663,0.675 2.72132,1.5 0.68469,0.825 1.86933,1.5 2.63254,1.5 3.51915,0 14.36746,13.14437 14.36746,17.40835 0,0.74072 0.61111,1.85394 1.35803,2.47382 0.74691,0.61989 1.64328,3.85623 1.99192,7.19187 0.34864,3.33565 1.31253,7.0337 2.14197,8.21789 0.82945,1.1842 1.50808,3.12286 1.50808,4.30813 0,1.18528 0.65295,2.69695 1.45099,3.35927 0.79804,0.66231 1.73237,3.30491 2.07627,5.87244 0.34391,2.56753 1.29463,6.43649 2.11272,8.59769 1.12704,2.97737 1.41143,7.37134 1.17373,18.13468 -0.28814,13.04749 -0.15071,14.38617 1.68629,16.42553 2.71579,3.01494 2.8772,15.27097 0.25,18.98284 -0.9625,1.35987 -1.75,3.6658 -1.75,5.12427 0,1.45847 -0.675,4.56492 -1.5,6.90322 -0.825,2.3383 -1.50208,5.20738 -1.50463,6.37573 -0.005,2.46175 -5.4052,8.62427 -7.55692,8.62427 -2.07298,0 -5.92838,8.96511 -8.38587,19.5 -2.6459,11.34252 -2.89032,18.91683 -0.68894,21.34933 4.77974,5.28155 2.37041,18.30074 -5.59116,30.21277 -4.02791,6.02652 -6.77248,11.909 -6.77248,14.51557 0,0.90305 -2.25,4.10377 -5,7.11271 -4.54381,4.97165 -5,5.90816 -5,10.26448 0,2.63653 -0.61855,6.54684 -1.37455,8.68958 -0.75601,2.14275 -1.70593,6.36182 -2.11095,9.37573 -0.40502,3.01391 -1.36147,6.99729 -2.12545,8.85195 -1.94783,4.72864 -1.90141,31.35435 0.068,38.98354 2.11223,8.18258 2.74449,40.94061 0.82032,42.50211 -0.77413,0.62823 -4.04778,3.72973 -7.27479,6.89223 -3.227,3.1625 -6.32316,5.75 -6.88034,5.75 -0.55719,0 -1.60012,1.09905 -2.31763,2.44234 -6.23255,11.66825 -14.93842,22.53625 -18.08089,22.57131 -0.67302,0.008 -2.19765,0.27492 -3.38806,0.59425 -1.57636,0.42285 -2.48825,-0.0246 -3.3565,-1.64691 z"
       style="fill:#a60f38;fill-opacity:0.99607843;stroke:#000000;stroke-opacity:1"
       inkscape:connector-curvature="0" />
    <g
       id="g840"
       style="fill:#a60f38;fill-opacity:0.99607843;stroke:#000000;stroke-opacity:1" />
  </g>
  <g
     id="g2830"
     transform="matrix(0.25387769,-0.04185881,0.04185881,0.25387769,295.20121,428.84353)"
     style="fill:#a60f38;fill-opacity:0.99607843;stroke:#000000;stroke-opacity:1">
    <path
       style="fill:#a60f38;fill-opacity:0.99607843;stroke:#000000;stroke-opacity:1"
       d="m 336.57143,796.24901 c -26.32129,-13.18535 -10.3277,-46.26226 -20.90259,-68.56129 11.46514,-20.81442 1.24901,-45.33749 6.3101,-67.95293 5.01655,-16.68238 -16.5741,-23.47999 -20.41669,-39.03574 -0.6782,-36.92755 -44.75453,-0.51657 -59.15525,-27.81499 -21.72347,-23.78435 16.30431,-59.11993 39.5533,-38.92651 10.16535,4.17973 34.16401,-1.19183 39.23907,-9.06414 -12.25695,-15.5998 -35.24534,-8.17925 -30.00959,-36.45742 19.64703,-151.4537 31.73193,-300.88948 49.90002,-449.218454 1.6241,-9.9359 1.3029,-50.5471583 12.71278,-42.502524 1.76478,30.215751 7.7421,59.741332 11.24545,89.660738 5.46279,30.55748 8.56066,61.49155 12.33981,92.41356 5.38576,27.90821 6.63573,56.06323 10.9744,84.4287 3.00989,29.60617 7.76214,56.43296 13.43289,84.42989 4.92805,27.03217 17.87146,111.52728 21.81063,138.81551 -3.48227,7.77402 9.66307,19.71561 -23.08987,30.89523 12.45162,0.61606 33.27567,-1.03816 42.72698,7.20767 27.65313,8.55092 42.71276,49.7684 11.04056,64.19292 -19.23279,9.13926 -36.64227,-31.15351 -36.79531,4.02351 -2.19693,27.2362 -40.92226,35.64059 -33.57368,66.42132 2.34134,19.79975 -7.65636,34.29355 2.16656,56.38135 -13.56522,16.38546 4.11527,40.31087 -11.64576,53.37455 -10.23742,10.42847 -24.47728,11.04031 -37.86381,7.28905 z m 21,-6.17724 c 38.17895,-13.61635 -3.15249,-51.2428 -26.04396,-29.4656 -13.0103,18.05551 7.12869,35.91552 26.04396,29.4656 z M 338.50276,752.1676 c 14.69999,-17.06062 42.47302,16.44756 40.24839,-18.42704 1.96749,-25.38227 -38.29289,-26.75306 -50.68912,-14.54986 -11.13881,6.58103 -4.07308,37.27012 10.44073,32.9769 z m 33.99234,-45.95137 c 8.55588,-24.83856 6.90301,-58.79059 -27.24006,-49.1453 -26.88026,-11.60941 -25.83411,52.5545 -3.6591,48.52587 10.73033,-1.94093 20.15559,2.48106 30.89916,0.61943 z m 1.56291,-55.94086 c 20.67143,-3.03325 34.88208,-25.31548 37.38873,-45.62747 4.89256,-21.40104 0.15519,-49.9602 -17.36203,-62.49701 -19.67658,3.39425 3.44186,25.11348 -0.49873,37.64274 3.4797,23.36043 -10.39306,50.60856 -36.3426,49.3317 -28.40955,6.16503 -31.20686,-32.68452 -50.96767,-34.02012 -10.64075,21.53876 15.05898,50.94101 36.29572,55.57762 10.26034,2.36617 21.10483,0.10673 31.48658,-0.40746 z m -6.0523,-30.14479 c 34.0905,-18.4486 -55.26368,-17.51944 -29.96672,-1.19631 7.64778,5.31107 21.11343,3.43262 29.96672,1.19631 z m -14.55617,-21.56975 c 24.23457,3.87904 44.81108,-4.3853 30.37637,-31.95819 -6.4852,-24.02816 -44.61652,-14.81884 -59.61542,-6.76277 2.09411,22.00778 -5.30946,49.75569 29.23905,38.72096 z m -9.37811,-11.15186 c -34.40339,-27.21652 52.19857,-37.73657 24.42432,-2.70298 -7.06397,5.11719 -16.38083,2.61881 -24.42432,2.70298 z m 14.81358,-6.48671 c 30.7278,-15.68721 -39.51396,-14.89869 -8.3565,1.15554 l 3.74444,-0.34789 z m 94.66722,17.11863 c 28.5387,-20.25697 -10.10737,-55.18375 -35.10074,-50.2421 -17.28517,11.30081 8.51285,42.38122 22.67881,50.81731 3.72971,2.56267 8.7148,1.29096 12.42193,-0.57521 z m -166.4808,-2.547 c 24.38022,8.54516 42.83911,-35.4673 17.73661,-37.62968 -18.59543,23.6214 -48.72082,-22.41935 -60.3164,14.08339 -3.97151,26.6657 23.81789,26.55847 42.57979,23.54629 z m 92.32801,-52.66086 c 15.08426,-22.6067 44.61212,-9.44739 34.34535,-42.10587 -3.67677,-27.91151 -10.45646,-65.3959 -11.77395,-93.49976 -5.30561,-29.56004 -12.66317,-59.18008 -15.21271,-89.12765 -4.0192,-26.97983 -7.57699,-53.82527 -10.39581,-81.12227 -5.4204,-30.26689 -6.17983,-62.51087 -12.54052,-92.64616 -2.51816,-21.44106 -9.91674,-75.846263 -15.06902,-101.049548 -14.87844,147.695858 -31.89399,329.373058 -49.80203,476.765498 13.43091,6.38465 29.60226,27.82668 46.35487,23.88187 11.35051,-0.20645 22.85845,0.58442 34.09382,-1.09611 z"
       id="path2832"
       sodipodi:nodetypes="cccccccccccccccccccccccccccccccccccccccccccccccccccccccccccccccccccccccccc"
       inkscape:connector-curvature="0" />
  </g>
  <path
     style="opacity:0.98999999;fill:#a60f38;fill-opacity:0.99607843;stroke:#000000;stroke-width:0.79141319;stroke-opacity:0"
     d="m 408.6519,558.1333 c -1.22517,0.31636 -3.55612,0.89887 -3.29257,2.63103 1.31474,1.50405 3.4529,2.45773 5.17842,1.16807 1.10102,-0.67708 3.23928,-2.17387 2.25767,-3.73099 -1.2695,-0.59622 -2.81077,-0.25798 -4.14352,-0.0681 z"
     id="path2875"
     inkscape:connector-curvature="0" />
  <path
     style="opacity:0.98999999;fill:#a60f38;fill-opacity:0.99607843;stroke:#000000;stroke-width:0.91966015;stroke-opacity:0"
     d="m 409.7181,566.50734 c -2.19396,0.6738 -5.4009,0.94369 -6.2683,3.75709 0.29959,2.33859 3.00916,2.6694 4.57975,3.08517 3.00093,0.099 6.19789,-0.60489 8.63994,-2.51398 0.96008,-0.89252 2.58768,-3.40047 0.74357,-4.41225 -2.49824,-0.95384 -5.2113,-0.26582 -7.69496,0.084 z"
     id="path2877"
     inkscape:connector-curvature="0" />
  <path
     style="opacity:0.98999999;fill:#a60f38;fill-opacity:0.99607843;stroke:#000000;stroke-width:0.60752136;stroke-opacity:0"
     d="m 412.65538,580.29299 c -1.1742,0.28575 -2.29731,0.87729 -3.5382,0.6765 -2.21572,0.0688 -3.20979,2.54293 -3.16995,4.46345 0.0571,2.86112 0.66058,6.20515 3.09063,8.01231 1.63038,1.08573 3.58694,-0.13333 5.34474,-0.13337 1.6229,-0.23661 3.48648,0.0557 4.93842,-0.79958 0.75682,-2.9151 0.35917,-6.08659 -0.54246,-8.93888 -0.85746,-2.48659 -3.55772,-3.95322 -6.12319,-3.28047 z"
     id="path2883"
     inkscape:connector-curvature="0" />
  <path
     style="opacity:0.98999999;fill:#a60f38;fill-opacity:0.99607843;stroke:#000000;stroke-width:0.71958899;stroke-opacity:0"
     d="m 384.56615,557.63908 c -1.91094,0.1423 -3.2243,1.8973 -3.4997,3.86736 -1.02755,3.34405 0.96232,7.63107 4.35338,8.14301 3.69521,0.8178 7.2621,-1.01422 10.9214,-1.20901 3.74533,-0.62756 5.73238,-5.25558 5.34356,-9.10684 -0.0805,-2.20763 -1.3628,-4.57918 -3.71736,-3.58661 -0.89462,1.00353 -2.29764,2.4736 -3.77541,2.45526 -3.22048,0.95262 -6.41668,-1.1028 -9.62587,-0.56317 z"
     id="path2885"
     sodipodi:nodetypes="cccccccc"
     inkscape:connector-curvature="0" />
  <path
     style="opacity:0.98999999;fill:#a60f38;fill-opacity:0.99607843;stroke:#000000;stroke-width:0.60752136;stroke-opacity:0"
     d="m 425.23802,550.09355 c -1.92173,0.21911 -2.41422,2.73284 -1.71548,4.24693 1.32397,3.17567 4.19342,5.40753 6.99309,7.23981 1.32587,0.93409 3.20183,1.41372 4.59054,0.35012 2.50117,-1.63909 2.87984,-5.4219 0.99252,-7.67851 -2.22041,-2.77312 -5.81469,-4.38028 -9.35433,-4.34268 -0.50665,0.0196 -1.00946,0.084 -1.50634,0.18433 z"
     id="path2889"
     inkscape:connector-curvature="0" />
  <path
     style="opacity:0.98999999;fill:#a60f38;fill-opacity:0.99607843;stroke:#000000;stroke-width:0.60752136;stroke-opacity:0"
     d="m 417.46725,550.02431 c -1.22502,0.48081 -1.76219,2.08068 -0.99133,3.202 1.21932,2.36619 2.90704,4.59921 3.02471,7.36542 0.61261,2.90719 0.44868,6.07246 -1.08675,8.66033 -1.24365,2.40291 -3.70359,3.9697 -6.38394,4.279 -1.65302,0.44527 -3.48172,0.61617 -4.96195,-0.36516 -2.92587,-1.69691 -4.77437,-4.97208 -8.02366,-6.12209 -0.8944,-0.34892 -1.57589,0.50503 -1.49515,1.34668 -0.21463,4.03687 2.89183,7.36719 6.0644,9.38472 2.80781,1.85308 6.33656,2.54617 9.60792,1.64665 2.78136,-0.73853 5.9481,-1.1163 7.91879,-3.44163 3.24151,-3.31343 4.19479,-8.1526 3.92587,-12.64943 -0.24403,-4.91807 -2.11212,-10.27725 -6.41917,-13.00039 -0.34554,-0.21872 -0.76179,-0.41696 -1.17974,-0.3061 z"
     id="path2891"
     inkscape:connector-curvature="0" />
  <path
     style="opacity:0.98999999;fill:#a60f38;fill-opacity:0.99607843;stroke:#000000;stroke-width:0.60752136;stroke-opacity:0"
     d="m 413.50275,594.89404 c -2.56356,0.48709 -5.45044,2.08324 -5.94094,4.85047 -0.0512,2.3605 1.02701,5.08029 3.26765,6.12042 0.89052,0.2809 1.94628,0.035 2.43558,-0.7974 1.62591,-1.70811 4.11113,-1.05408 6.18995,-1.09865 1.14406,0.12792 2.75973,-0.15805 2.88291,-1.56145 0.25505,-2.04425 -0.0346,-4.3966 -1.3879,-6.01707 -1.88794,-1.96819 -4.95036,-1.98676 -7.44725,-1.49632 z"
     id="path2893"
     inkscape:connector-curvature="0" />
  <path
     style="opacity:0.98999999;fill:#a60f38;fill-opacity:0.99607843;stroke:#000000;stroke-width:0.60752136;stroke-opacity:0"
     d="m 414.83407,605.75765 c -2.60586,0.2461 -4.73828,2.7807 -4.2782,5.4029 0.29211,2.42151 2.83386,4.11823 5.15105,4.12763 1.98668,-0.0977 3.97624,-0.72093 5.35755,-2.21052 1.43452,-1.22338 1.94752,-3.59876 0.53659,-5.04211 -1.5948,-1.92281 -4.30583,-2.99385 -6.76699,-2.2779 z"
     id="path2895"
     inkscape:connector-curvature="0" />
  <path
     style="opacity:0.98999999;fill:#a60f38;fill-opacity:0.99607843;stroke:#000000;stroke-width:0.26422262;stroke-opacity:0"
     d="m 401.09323,550.25214 c 0.56382,1.44696 3.81966,3.19133 10.10544,1.81702 1.57715,-0.29926 3.70983,-0.43509 4.39072,-2.18521 1.87288,-2.69043 5.63285,-3.44872 7.24876,-6.30225 0.77128,-2.23074 -1.02712,-4.45376 -1.46943,-6.6054 -3.53732,-10.15625 -5.88574,-20.68527 -9.88247,-30.68804 -3.59677,-9.59153 -6.28361,-19.48503 -9.29039,-29.26638 -3.10337,-10.04239 -5.8944,-20.17857 -9.26672,-30.13828 -1.95689,-6.51463 -4.49943,-16.1802 -7.16987,-21.73914 0.0652,27.53954 8.12502,87.00282 15.33396,125.10768 z"
     sodipodi:nodetypes="cccccccccc"
     id="path981"
     inkscape:connector-curvature="0" />
  <path
     style="opacity:0.98999999;fill:#a60f38;fill-opacity:0.99607843;stroke:#000000;stroke-width:0.18522219;stroke-opacity:0"
     d="m 385.27294,425.79752 c 0.29562,7.38698 0.89804,14.80278 1.33433,22.19909 2.15519,33.30116 4.43865,66.60402 5.99183,99.93437 0.35721,1.00585 1.72785,0.97973 2.47313,1.58973 2.80533,1.31559 4.57855,3.51953 7.74827,3.68403 2.26614,-0.33442 5.43543,-0.96109 7.69377,-1.39269 0.99456,-0.28041 0.34009,-1.5819 0.57718,-2.32419 0.0155,-3.20568 -1.0904,-6.30231 -1.63255,-9.43631 -2.48519,-11.76999 -4.89753,-23.58476 -7.49294,-35.32942 -4.11356,-19.82849 -8.03209,-39.69743 -12.19271,-59.51638 -1.34562,-6.43114 -2.57534,-12.89185 -3.88724,-19.32603 -0.0742,-0.30563 -0.45839,-0.32112 -0.61307,-0.0822 z"
     id="path2905"
     sodipodi:nodetypes="cccccccccccc"
     inkscape:connector-curvature="0" />
  <rect
     style="fill:#a60f38;fill-opacity:0.99607843;stroke:#000000;stroke-width:1.24254906;stroke-opacity:0"
     id="rect2311"
     width="23.139484"
     height="25.589779"
     x="399.88339"
     y="549.52679" />
  <ellipse
     style="fill:#a60f38;fill-opacity:0.99607843;stroke:#000000;stroke-opacity:0"
     id="path2315"
     cx="426.23438"
     cy="555.59375"
     rx="8.484375"
     ry="7.28125" />
  <ellipse
     style="fill:#a60f38;fill-opacity:0.99607843;stroke:#000000;stroke-width:0.67886561;stroke-opacity:0"
     id="path2315-3"
     cx="431.54688"
     cy="558.53125"
     rx="6.1918173"
     ry="4.5980673" />
  <ellipse
     style="fill:#a60f38;fill-opacity:0.99607843;stroke:#000000;stroke-width:0.67886561;stroke-opacity:0"
     id="path2315-3-6"
     cx="431.59375"
     cy="555.65625"
     rx="6.1918173"
     ry="4.5980673" />
  <ellipse
     style="fill:#a60f38;fill-opacity:0.99607843;stroke:#000000;stroke-width:1.16556227;stroke-opacity:0"
     id="path2315-7"
     cx="407.28125"
     cy="570.01562"
     rx="10.026594"
     ry="8.3703442" />
  <ellipse
     style="fill:#a60f38;fill-opacity:0.99607843;stroke:#000000;stroke-width:1.16556227;stroke-opacity:0"
     id="path2315-7-5"
     cx="412.21875"
     cy="573.59375"
     rx="10.026594"
     ry="8.3703442" />
  <ellipse
     style="fill:#a60f38;fill-opacity:0.99607843;stroke:#000000;stroke-width:1.16556227;stroke-opacity:0"
     id="path2315-7-5-3"
     cx="416.40625"
     cy="568.21875"
     rx="10.026594"
     ry="8.3703442" />
  <ellipse
     style="fill:#a60f38;fill-opacity:0.99607843;stroke:#000000;stroke-width:1.16556227;stroke-opacity:0"
     id="path2315-7-5-3-5"
     cx="416"
     cy="561.40625"
     rx="10.026594"
     ry="8.3703442" />
  <ellipse
     style="fill:#a60f38;fill-opacity:0.99607843;stroke:#000000;stroke-width:0.91650373;stroke-opacity:0"
     id="path2315-7-5-3-5-6"
     cx="413.73438"
     cy="589.96875"
     rx="7.7292485"
     ry="6.7136235" />
  <ellipse
     style="fill:#a60f38;fill-opacity:0.99607843;stroke:#000000;stroke-width:0.91650373;stroke-opacity:0"
     id="path2315-7-5-3-5-6-2"
     cx="412.625"
     cy="584.65625"
     rx="7.7292485"
     ry="6.7136235" />
  <ellipse
     style="fill:#a60f38;fill-opacity:0.99607843;stroke:#000000;stroke-width:0.91650373;stroke-opacity:0"
     id="path2315-7-5-3-5-6-2-9"
     cx="415.0625"
     cy="600.53125"
     rx="7.7292485"
     ry="6.7136235" />
  <ellipse
     style="fill:#a60f38;fill-opacity:0.99607843;stroke:#000000;stroke-width:0.91650373;stroke-opacity:0"
     id="path2315-7-5-3-5-6-2-9-1"
     cx="413.46875"
     cy="589.5"
     rx="7.7292485"
     ry="6.7136235" />
  <ellipse
     style="fill:#a60f38;fill-opacity:0.99607843;stroke:#000000;stroke-width:0.90687019;stroke-opacity:0"
     id="path2315-7-5-3-5-6-2-9-1-2"
     cx="416.42188"
     cy="609.25"
     rx="7.5621901"
     ry="6.7184401" />
</svg>
