<?xml version="1.0" encoding="UTF-8" standalone="no"?>
<svg
   xmlns:dc="http://purl.org/dc/elements/1.1/"
   xmlns:cc="http://creativecommons.org/ns#"
   xmlns:rdf="http://www.w3.org/1999/02/22-rdf-syntax-ns#"
   xmlns:svg="http://www.w3.org/2000/svg"
   xmlns="http://www.w3.org/2000/svg"
   xmlns:sodipodi="http://sodipodi.sourceforge.net/DTD/sodipodi-0.dtd"
   xmlns:inkscape="http://www.inkscape.org/namespaces/inkscape"
   width="40"
   height="40"
   viewBox="0 0 40 40"
   aria-labelledby="donateTitleID donateDescID"
   version="1.1"
   id="svg6"
   sodipodi:docname="heart.svg"
   inkscape:version="0.92.5 (2060ec1f9f, 2020-04-08)">
  <metadata
     id="metadata12">
    <rdf:RDF>
      <cc:Work
         rdf:about="">
        <dc:format>image/svg+xml</dc:format>
        <dc:type
           rdf:resource="http://purl.org/dc/dcmitype/StillImage" />
      </cc:Work>
    </rdf:RDF>
  </metadata>
  <defs
     id="defs10" />
  <sodipodi:namedview
     pagecolor="#ffffff"
     bordercolor="#666666"
     borderopacity="1"
     objecttolerance="10"
     gridtolerance="10"
     guidetolerance="10"
     inkscape:pageopacity="0"
     inkscape:pageshadow="2"
     inkscape:window-width="1920"
     inkscape:window-height="1015"
     id="namedview8"
     showgrid="false"
     inkscape:zoom="5.9"
     inkscape:cx="20"
     inkscape:cy="20"
     inkscape:window-x="0"
     inkscape:window-y="0"
     inkscape:window-maximized="1"
     inkscape:current-layer="svg6" />
  <title
     id="donateTitleID">Donate icon</title>
  <desc
     id="donateDescID">An illustration of a heart shape</desc>
  <path
     class="fill-color"
     d="m30.0120362 11.0857287c-1.2990268-1.12627221-2.8599641-1.65258786-4.682812-1.57894699-.8253588.02475323-1.7674318.3849128-2.8262192 1.08047869-1.0587873.6955659-1.89622 1.5724492-2.512298 2.63065-.591311-1.0588196-1.4194561-1.9357029-2.4844351-2.63065-1.0649791-.69494706-2.0039563-1.05510663-2.8169316-1.08047869-1.2067699-.04950647-2.318187.17203498-3.3342513.66462439-1.0160643.4925893-1.82594378 1.2002224-2.42963831 2.1228992-.60369453.9226769-.91173353 1.9629315-.92411701 3.1207641-.03715043 1.9202322.70183359 3.7665141 2.21695202 5.5388457 1.2067699 1.4035084 2.912594 3.1606786 5.1174721 5.2715107 2.2048782 2.1108321 3.7565279 3.5356901 4.6549492 4.2745742.8253588-.6646243 2.355647-2.0647292 4.5908647-4.2003145s3.9747867-3.9171994 5.218707-5.3448422c1.502735-1.7723316 2.2355273-3.6186135 2.1983769-5.5388457-.0256957-1.7608832-.6875926-3.2039968-1.9866194-4.3302689z"
     id="path4"
     style="fill:#eeeeee;fill-opacity:1;stroke:#000000;stroke-opacity:0.11764706" />
</svg>
